<svg width="185" height="77" viewBox="0 0 185 77" fill="none" xmlns="http://www.w3.org/2000/svg">
<path fill-rule="evenodd" clip-rule="evenodd" d="M22.336 24.3123C20.4587 23.2883 18.2613 22.7763 15.744 22.7763C12.8 22.7763 10.1333 23.523 7.744 25.0163C5.35467 26.5097 3.456 28.643 2.048 31.4163C0.682667 34.1897 0 37.411 0 41.0803C0 44.7497 0.682667 47.9923 2.048 50.8083C3.456 53.5817 5.35467 55.7363 7.744 57.2723C10.1333 58.7657 12.8 59.5123 15.744 59.5123C18.2613 59.5123 20.4587 59.0003 22.336 57.9763C24.2133 56.9097 25.6853 55.5443 26.752 53.8803V58.9363C26.752 61.795 26.0693 63.8643 24.704 65.1443C23.3813 66.467 21.5893 67.1283 19.328 67.1283C17.4507 67.1283 15.872 66.723 14.592 65.9123C13.312 65.1443 12.5013 64.0777 12.16 62.7123H1.344C1.81333 66.979 3.69067 70.3497 6.976 72.8243C10.2613 75.3417 14.5493 76.6003 19.84 76.6003C23.808 76.6003 27.1147 75.811 29.76 74.2323C32.448 72.6537 34.432 70.5203 35.712 67.8323C37.0347 65.187 37.696 62.2217 37.696 58.9363V23.2883H26.752V28.3443C25.728 26.6803 24.256 25.3363 22.336 24.3123ZM24.448 34.6803C25.984 36.259 26.752 38.4137 26.752 41.1443C26.752 43.875 25.984 46.0297 24.448 47.6083C22.9547 49.187 21.12 49.9763 18.944 49.9763C16.768 49.9763 14.912 49.187 13.376 47.6083C11.8827 45.987 11.136 43.811 11.136 41.0803C11.136 38.3497 11.8827 36.2163 13.376 34.6803C14.912 33.1017 16.768 32.3123 18.944 32.3123C21.12 32.3123 22.9547 33.1017 24.448 34.6803ZM46.3815 17.9123C47.6188 19.0217 49.1975 19.5763 51.1175 19.5763C52.9948 19.5763 54.5308 19.0217 55.7255 17.9123C56.9628 16.7603 57.5815 15.3523 57.5815 13.6883C57.5815 11.9817 56.9628 10.5737 55.7255 9.46433C54.5308 8.31233 52.9948 7.73633 51.1175 7.73633C49.1975 7.73633 47.6188 8.31233 46.3815 9.46433C45.1868 10.5737 44.5895 11.9817 44.5895 13.6883C44.5895 15.3523 45.1868 16.7603 46.3815 17.9123ZM45.6135 59.0003H56.5575V23.2883H45.6135V59.0003ZM64.3605 31.4163C62.9952 34.1897 62.3125 37.411 62.3125 41.0803C62.3125 44.7497 62.9952 47.9923 64.3605 50.8083C65.7685 53.5817 67.6672 55.7363 70.0565 57.2723C72.4458 58.7657 75.1125 59.5123 78.0565 59.5123C80.5738 59.5123 82.7712 59.0003 84.6485 57.9763C86.5685 56.9523 88.0405 55.587 89.0645 53.8803V59.0003H100.008V21.7928L94.716 16.5003L89.856 11.6403H89.0645V28.2163C87.9552 26.5523 86.4192 25.2297 84.4565 24.2483C82.5365 23.267 80.4032 22.7763 78.0565 22.7763C75.1125 22.7763 72.4458 23.523 70.0565 25.0163C67.6672 26.5097 65.7685 28.643 64.3605 31.4163ZM86.7605 34.6803C88.2965 36.259 89.0645 38.4137 89.0645 41.1443C89.0645 43.875 88.2965 46.0297 86.7605 47.6083C85.2672 49.187 83.4325 49.9763 81.2565 49.9763C79.0805 49.9763 77.2245 49.187 75.6885 47.6083C74.1952 45.987 73.4485 43.811 73.4485 41.0803C73.4485 38.3497 74.1952 36.2163 75.6885 34.6803C77.2245 33.1017 79.0805 32.3123 81.2565 32.3123C83.4325 32.3123 85.2672 33.1017 86.7605 34.6803ZM105.59 58.5683C106.054 58.9843 106.646 59.1923 107.366 59.1923C108.07 59.1923 108.646 58.9843 109.094 58.5683C109.558 58.1363 109.79 57.6083 109.79 56.9843C109.79 56.3443 109.558 55.8083 109.094 55.3763C108.646 54.9443 108.07 54.7283 107.366 54.7283C106.646 54.7283 106.054 54.9443 105.59 55.3763C105.142 55.8083 104.918 56.3443 104.918 56.9843C104.918 57.6083 105.142 58.1363 105.59 58.5683ZM119.779 45.9923C119.075 45.6083 118.251 45.4163 117.307 45.4163C116.203 45.4163 115.203 45.6963 114.307 46.2563C113.411 46.8163 112.699 47.6163 112.171 48.6563C111.659 49.6963 111.403 50.9043 111.403 52.2803C111.403 53.6563 111.659 54.8723 112.171 55.9283C112.699 56.9683 113.411 57.7763 114.307 58.3523C115.203 58.9123 116.203 59.1923 117.307 59.1923C118.251 59.1923 119.075 59.0003 119.779 58.6163C120.483 58.2163 121.035 57.7043 121.435 57.0803V58.9763C121.435 60.0483 121.179 60.8243 120.667 61.3043C120.171 61.8003 119.499 62.0483 118.651 62.0483C117.947 62.0483 117.355 61.8963 116.875 61.5923C116.395 61.3043 116.091 60.9043 115.963 60.3923H111.907C112.083 61.9923 112.787 63.2563 114.019 64.1843C115.251 65.1283 116.859 65.6003 118.843 65.6003C120.331 65.6003 121.571 65.3043 122.563 64.7123C123.571 64.1203 124.315 63.3203 124.795 62.3123C125.291 61.3203 125.539 60.2083 125.539 58.9763V45.6083H121.435V47.5043C121.051 46.8803 120.499 46.3763 119.779 45.9923ZM120.571 49.8803C121.147 50.4723 121.435 51.2803 121.435 52.3043C121.435 53.3283 121.147 54.1363 120.571 54.7283C120.011 55.3203 119.323 55.6163 118.507 55.6163C117.691 55.6163 116.995 55.3203 116.419 54.7283C115.859 54.1203 115.579 53.3043 115.579 52.2803C115.579 51.2563 115.859 50.4563 116.419 49.8803C116.995 49.2883 117.691 48.9923 118.507 48.9923C119.323 48.9923 120.011 49.2883 120.571 49.8803ZM134.413 46.1123C133.693 46.5283 133.092 47.1043 132.613 47.8403V45.6083H128.508V59.0003H132.613V52.7843C132.613 51.6803 132.868 50.9123 133.38 50.4803C133.893 50.0323 134.661 49.8083 135.684 49.8083H136.812V45.4643C135.932 45.4643 135.133 45.6803 134.413 46.1123ZM141.318 58.3523C142.374 58.9123 143.558 59.1923 144.87 59.1923C146.182 59.1923 147.366 58.9123 148.422 58.3523C149.494 57.7923 150.334 56.9923 150.942 55.9523C151.566 54.8963 151.878 53.6803 151.878 52.3043C151.878 50.9283 151.574 49.7203 150.966 48.6803C150.358 47.6243 149.526 46.8163 148.47 46.2563C147.414 45.6963 146.23 45.4163 144.918 45.4163C143.606 45.4163 142.422 45.6963 141.366 46.2563C140.31 46.8163 139.478 47.6243 138.87 48.6803C138.262 49.7203 137.958 50.9283 137.958 52.3043C137.958 53.6963 138.254 54.9123 138.846 55.9523C139.454 56.9923 140.278 57.7923 141.318 58.3523ZM146.862 54.7763C146.318 55.3523 145.654 55.6403 144.87 55.6403C144.086 55.6403 143.43 55.3523 142.902 54.7763C142.39 54.2003 142.134 53.3763 142.134 52.3043C142.134 51.2163 142.398 50.3923 142.926 49.8323C143.454 49.2563 144.118 48.9683 144.918 48.9683C145.702 48.9683 146.358 49.2563 146.886 49.8323C147.43 50.4083 147.702 51.2323 147.702 52.3043C147.702 53.3763 147.422 54.2003 146.862 54.7763ZM167.279 59.0003V45.6083H163.175V52.8803C163.175 53.7763 162.943 54.4723 162.479 54.9683C162.015 55.4643 161.383 55.7123 160.583 55.7123C159.799 55.7123 159.175 55.4643 158.711 54.9683C158.247 54.4723 158.015 53.7763 158.015 52.8803V45.6083H153.935V53.4323C153.935 54.6003 154.151 55.6163 154.583 56.4803C155.015 57.3443 155.623 58.0083 156.407 58.4723C157.191 58.9203 158.095 59.1443 159.119 59.1443C159.983 59.1443 160.767 58.9683 161.471 58.6163C162.191 58.2483 162.759 57.7683 163.175 57.1763V59.0003H167.279ZM175.987 45.9923C175.283 46.3763 174.731 46.8803 174.331 47.5043V45.6083H170.227V65.3843H174.331V57.1283C174.731 57.7363 175.283 58.2323 175.987 58.6163C176.707 59.0003 177.531 59.1923 178.459 59.1923C179.563 59.1923 180.563 58.9123 181.459 58.3523C182.355 57.7763 183.059 56.9683 183.571 55.9283C184.099 54.8723 184.363 53.6563 184.363 52.2803C184.363 50.9043 184.099 49.6963 183.571 48.6563C183.059 47.6163 182.355 46.8163 181.459 46.2563C180.563 45.6963 179.563 45.4163 178.459 45.4163C177.515 45.4163 176.691 45.6083 175.987 45.9923ZM179.323 49.8803C179.899 50.4563 180.187 51.2563 180.187 52.2803C180.187 53.3043 179.899 54.1203 179.323 54.7283C178.747 55.3203 178.051 55.6163 177.235 55.6163C176.419 55.6163 175.723 55.3203 175.147 54.7283C174.587 54.1363 174.307 53.3283 174.307 52.3043C174.307 51.2803 174.587 50.4723 175.147 49.8803C175.723 49.2883 176.419 48.9923 177.235 48.9923C178.067 48.9923 178.763 49.2883 179.323 49.8803Z" fill="white"/>
<path fill-rule="evenodd" clip-rule="evenodd" d="M111.216 32V0H79.2158L89.2158 10H101.208V21.992L111.216 32Z" fill="#FAFF09"/>
</svg>
